<svg width="20" height="20" viewBox="0 0 20 20" fill="none" xmlns="http://www.w3.org/2000/svg">
<rect width="20" height="20" rx="10" fill="#FAFAFA"/>
<path d="M10 4C9.16667 4 8.38542 4.15625 7.65625 4.46875C6.94792 4.78125 6.3125 5.21875 5.75 5.78125C5.20833 6.32292 4.78125 6.95833 4.46875 7.6875C4.15625 8.39583 4 9.16667 4 10C4 10.8333 4.15625 11.6146 4.46875 12.3438C4.78125 13.0521 5.20833 13.6875 5.75 14.25C6.3125 14.7917 6.94792 15.2188 7.65625 15.5312C8.38542 15.8438 9.16667 16 10 16C10.8333 16 11.6042 15.8438 12.3125 15.5312C13.0417 15.2188 13.6771 14.7917 14.2188 14.25C14.7812 13.6875 15.2188 13.0521 15.5312 12.3438C15.8438 11.6146 16 10.8333 16 10C16 9.85417 15.9896 9.70833 15.9688 9.5625C15.9688 9.39583 15.9583 9.23958 15.9375 9.09375C15.6042 9.55208 15.1771 9.91667 14.6562 10.1875C14.1562 10.4583 13.6042 10.5938 13 10.5938C12.3333 10.5938 11.7292 10.4375 11.1875 10.125C10.6458 9.79167 10.2083 9.35417 9.875 8.8125C9.5625 8.27083 9.40625 7.66667 9.40625 7C9.40625 6.39583 9.54167 5.84375 9.8125 5.34375C10.0833 4.82292 10.4479 4.39583 10.9062 4.0625C10.7604 4.04167 10.6042 4.03125 10.4375 4.03125C10.2917 4.01042 10.1458 4 10 4Z" fill="#222222"/>
</svg>
