<svg width="20" height="20" viewBox="0 0 20 20" fill="none" xmlns="http://www.w3.org/2000/svg">
<rect width="20" height="20" rx="10" fill="white"/>
<path d="M10 6.65625C9.39583 6.65625 8.83333 6.8125 8.3125 7.125C7.8125 7.41667 7.40625 7.82292 7.09375 8.34375C6.80208 8.84375 6.65625 9.39583 6.65625 10C6.65625 10.6042 6.80208 11.1667 7.09375 11.6875C7.40625 12.1875 7.8125 12.5938 8.3125 12.9062C8.83333 13.1979 9.39583 13.3438 10 13.3438C10.6042 13.3438 11.1562 13.1979 11.6562 12.9062C12.1771 12.5938 12.5833 12.1875 12.875 11.6875C13.1875 11.1667 13.3438 10.6042 13.3438 10C13.3438 9.39583 13.1875 8.84375 12.875 8.34375C12.5833 7.82292 12.1771 7.41667 11.6562 7.125C11.1562 6.8125 10.6042 6.65625 10 6.65625ZM3.34375 10.6562H4.65625C4.84375 10.6562 5 10.5938 5.125 10.4688C5.27083 10.3438 5.34375 10.1875 5.34375 10C5.34375 9.8125 5.27083 9.65625 5.125 9.53125C5 9.40625 4.84375 9.34375 4.65625 9.34375H3.34375C3.15625 9.34375 2.98958 9.40625 2.84375 9.53125C2.71875 9.65625 2.65625 9.8125 2.65625 10C2.65625 10.1875 2.71875 10.3438 2.84375 10.4688C2.98958 10.5938 3.15625 10.6562 3.34375 10.6562ZM15.3438 10.6562H16.6562C16.8438 10.6562 17 10.5938 17.125 10.4688C17.2708 10.3438 17.3438 10.1875 17.3438 10C17.3438 9.8125 17.2708 9.65625 17.125 9.53125C17 9.40625 16.8438 9.34375 16.6562 9.34375H15.3438C15.1562 9.34375 14.9896 9.40625 14.8438 9.53125C14.7188 9.65625 14.6562 9.8125 14.6562 10C14.6562 10.1875 14.7188 10.3438 14.8438 10.4688C14.9896 10.5938 15.1562 10.6562 15.3438 10.6562ZM9.34375 3.34375V4.65625C9.34375 4.84375 9.40625 5.01042 9.53125 5.15625C9.65625 5.28125 9.8125 5.34375 10 5.34375C10.1875 5.34375 10.3438 5.28125 10.4688 5.15625C10.5938 5.01042 10.6562 4.84375 10.6562 4.65625V3.34375C10.6562 3.15625 10.5938 3 10.4688 2.875C10.3438 2.72917 10.1875 2.65625 10 2.65625C9.8125 2.65625 9.65625 2.72917 9.53125 2.875C9.40625 3 9.34375 3.15625 9.34375 3.34375ZM9.34375 15.3438V16.6562C9.34375 16.8438 9.40625 17.0104 9.53125 17.1562C9.65625 17.2812 9.8125 17.3438 10 17.3438C10.1875 17.3438 10.3438 17.2812 10.4688 17.1562C10.5938 17.0104 10.6562 16.8438 10.6562 16.6562V15.3438C10.6562 15.1562 10.5938 15 10.4688 14.875C10.3438 14.7292 10.1875 14.6562 10 14.6562C9.8125 14.6562 9.65625 14.7292 9.53125 14.875C9.40625 15 9.34375 15.1562 9.34375 15.3438ZM6 5.0625C5.875 4.91667 5.71875 4.84375 5.53125 4.84375C5.34375 4.84375 5.1875 4.91667 5.0625 5.0625C4.91667 5.1875 4.84375 5.34375 4.84375 5.53125C4.84375 5.71875 4.91667 5.875 5.0625 6L5.75 6.6875C5.89583 6.83333 6.05208 6.90625 6.21875 6.90625C6.40625 6.90625 6.5625 6.83333 6.6875 6.6875C6.8125 6.5625 6.875 6.40625 6.875 6.21875C6.89583 6.03125 6.83333 5.875 6.6875 5.75L6 5.0625ZM14.25 13.3125C14.1042 13.1667 13.9375 13.0938 13.75 13.0938C13.5833 13.0938 13.4375 13.1667 13.3125 13.3125C13.1667 13.4375 13.0938 13.5938 13.0938 13.7812C13.0938 13.9688 13.1667 14.125 13.3125 14.25L14 14.9375C14.125 15.0833 14.2812 15.1562 14.4688 15.1562C14.6562 15.1562 14.8125 15.0833 14.9375 14.9375C15.0833 14.8125 15.1562 14.6562 15.1562 14.4688C15.1562 14.2812 15.0833 14.125 14.9375 14L14.25 13.3125ZM14.9375 6C15.0833 5.875 15.1562 5.71875 15.1562 5.53125C15.1562 5.34375 15.0833 5.1875 14.9375 5.0625C14.8125 4.91667 14.6562 4.84375 14.4688 4.84375C14.2812 4.84375 14.125 4.91667 14 5.0625L13.3125 5.75C13.1667 5.89583 13.0938 6.0625 13.0938 6.25C13.0938 6.41667 13.1667 6.5625 13.3125 6.6875C13.4375 6.8125 13.5938 6.88542 13.7812 6.90625C13.9688 6.90625 14.125 6.83333 14.25 6.6875L14.9375 6ZM6.6875 14.25C6.83333 14.1042 6.90625 13.9479 6.90625 13.7812C6.90625 13.5938 6.83333 13.4375 6.6875 13.3125C6.5625 13.1667 6.40625 13.0938 6.21875 13.0938C6.03125 13.0938 5.875 13.1667 5.75 13.3125L5.0625 14C4.91667 14.125 4.84375 14.2812 4.84375 14.4688C4.84375 14.6562 4.91667 14.8125 5.0625 14.9375C5.1875 15.0625 5.34375 15.1354 5.53125 15.1562C5.71875 15.1562 5.875 15.0833 6 14.9375L6.6875 14.25Z" fill="#FBB910"/>
</svg>
